<svg width="582" height="588" viewBox="0 0 582 588" fill="none" xmlns="http://www.w3.org/2000/svg">
<g clip-path="url(#clip0_81_192)">
<mask id="mask0_81_192" style="mask-type:luminance" maskUnits="userSpaceOnUse" x="0" y="0" width="582" height="588">
<path d="M582 0H0V588H582V0Z" fill="white"/>
</mask>
<g mask="url(#mask0_81_192)">
<path fill-rule="evenodd" clip-rule="evenodd" d="M124.55 78.04C193.57 76.79 232.72 105.46 240.58 164.18C270.7 106.77 315.94 78.04 360.53 78.04C530.26 78.04 483.05 321.31 310.15 365.03C336.68 428.13 413.92 522.64 511.27 554.47L519 556.56L512.91 561.59C496.36 572.79 477.54 580.88 457.29 585.03L444.42 587L439.21 584.3C362.84 541.34 289.68 465.76 246.82 371.6L225.21 369.64L197 500.75H130.44L182.23 269.21C187.9 246.79 191.19 223.83 192.06 200.73C192.06 156.35 172.41 131.59 118 132.89L124.55 78.04ZM361.84 134.19C302.19 134.19 254.98 233.47 234.68 317.45C242.9 318.93 251.22 319.8 259.57 320.06C387.38 320.06 456.05 134.19 361.84 134.19Z" fill="white"/>
</g>
</g>
<defs>
<clipPath id="clip0_81_192">
<rect width="582" height="588" fill="white"/>
</clipPath>
</defs>
</svg>
